:SAMPLES-PER-SECOND 30
:FULLY-SPECIFIED
:DEGREES
171
root  0.750768 36.6235 0.727272 -35.6484 -72.7278 33.4354
RightUpLeg  -21.8961 -13.4121 -5.72432
RightLeg  55.7089 -5.95878 -9.80138
RightFoot  -18.1928 0.155025 4.31509
RightToes  -1.16417e-010 0 -3.6325e-017
Spine  15.2807 -1.38715 -2.75065
Spine1  -7.65674 -0.498469 -9.76699
HEad  -5.11613 -6.21177 -2.17944
LeftShoulder1  0.182486 1.40486 -0.288773
LeftArm  16.6947 4.96276 -2.79418
LeftForeArm  44.451 -47.3953 -8.0567
LeftHand  0.46531 7.98907 20.9749
RightShoulder  0.934373 1.32612 12.3414
RightArm  48.1874 -49.5754 24.8413
RightForeArm  -169.61 77.6269 140.552
RightHand  -0.426526 -1.42712 -11.7834
LeftUpLeg  -12.0891 10.3016 12.4592
LeftLeg  45.7961 -3.81442 -4.03503
LeftFoot  -15.3639 -0.588021 -17.8605
LeftToes  6.91183e-011 3.39355e-011 2.1261e-011
172
root  0.508925 36.497 0.977089 -58.5765 -77.122 57.3274
RightUpLeg  -22.5898 -6.87443 -6.43577
RightLeg  55.2215 -7.08024 -11.2191
RightFoot  -21.1448 0.159259 3.47459
RightToes  -1.16417e-010 0 -3.6325e-017
Spine  12.8591 -1.42884 -2.43613
Spine1  -7.50881 -0.350563 -11.6166
HEad  -3.79394 0.745786 -3.93773
LeftShoulder1  0.100817 2.25083 0.340715
LeftArm  22.7347 2.7248 -1.39173
LeftForeArm  34.8478 -21.7596 -5.81359
LeftHand  0.565116 8.60869 20.4814
RightShoulder  0.932907 1.13958 13.1663
RightArm  43.3395 -53.1817 29.5103
RightForeArm  -178.115 79.3288 131.99
RightHand  0.124793 -1.89196 4.27693
LeftUpLeg  -5.05463 4.86105 15.7773
LeftLeg  32.5898 1.13145 1.36362
LeftFoot  -9.64859 0.298434 -13.876
LeftToes  6.91183e-011 3.39355e-011 2.1261e-011
173
root  0.432729 36.13 1.26481 -78.5663 -78.4668 78.2822
RightUpLeg  -25.0574 -3.85203 -7.05717
RightLeg  57.3704 -5.71201 -9.95846
RightFoot  -22.9269 0.215006 3.65548
RightToes  -1.16417e-010 0 -3.6325e-017
Spine  11.5838 -2.15084 -3.6083
Spine1  -7.68811 -1.47487 -8.60742
HEad  -3.78393 7.3947 -5.32884
LeftShoulder1  0.0811255 2.65575 -1.27895
LeftArm  0.94242 2.06675 0.59011
LeftForeArm  48.626 1.18481 -13.7165
LeftHand  0.596373 10.4134 15.1245
RightShoulder  0.943083 1.10774 13.5724
RightArm  31.692 -53.4375 36.7102
RightForeArm  141.71 81.6339 97.1589
RightHand  0.550377 -2.1383 21.1689
LeftUpLeg  -0.987208 -2.94247 16.9063
LeftLeg  22.0125 -0.834934 -0.00264894
LeftFoot  -5.21578 1.02404 -18.5054
LeftToes  6.91183e-011 3.39355e-011 2.1261e-011
174
root  0.601037 35.6259 1.5441 -81.3086 -78.3731 81.0253
RightUpLeg  -26.8877 -3.27282 -7.3832
RightLeg  60.2711 -5.29768 -10.4644
RightFoot  -24.0975 0.193315 3.19439
RightToes  -1.16417e-010 0 -3.6325e-017
Spine  12.0648 -3.33088 -6.59553
Spine1  -6.80962 -3.62902 -1.09829
HEad  -5.18588 11.7524 -6.90456
LeftShoulder1  0.155755 2.26261 -4.43655
LeftArm  -8.42857 3.90756 0.888311
LeftForeArm  46.5215 7.96612 -10.7353
LeftHand  0.176071 12.4987 3.82433
RightShoulder  1.0943 1.45516 15.309
RightArm  14.4861 -50.9922 43.5453
RightForeArm  85.7301 78.6218 47.1006
RightHand  -0.0235325 -5.34868 32.4732
LeftUpLeg  -2.11738 -8.24998 17.3116
LeftLeg  21.1049 -5.091 -1.90238
LeftFoot  -5.49832 1.35321 -25.6776
LeftToes  6.91183e-011 3.39355e-011 2.1261e-011
175
root  0.962362 35.1264 1.75361 -74.4923 -78.9436 73.6072
RightUpLeg  -27.5629 -3.13502 -6.38874
RightLeg  62.2194 -6.40433 -13.5023
RightFoot  -25.337 0.167135 2.75718
RightToes  -1.16417e-010 0 -3.6325e-017
Spine  13.5841 -3.77862 -8.15973
Spine1  -4.78712 -5.16374 5.68727
HEad  -8.2868 12.7106 -9.37122
LeftShoulder1  0.387696 0.980311 -7.75417
LeftArm  -10.148 6.05432 -1.44159
LeftForeArm  38.8648 7.31859 -10.1271
LeftHand  -0.235919 13.1023 -2.65844
RightShoulder  1.41645 2.06144 19.0206
RightArm  -4.26426 -46.7455 47.8673
RightForeArm  69.5653 74.7975 32.4584
RightHand  -1.29644 -9.44929 33.2811
LeftUpLeg  -6.12161 -8.43606 18.4294
LeftLeg  27.5723 -5.09055 -2.45958
LeftFoot  -7.68621 0.935913 -27.1714
LeftToes  6.91183e-011 3.39355e-011 2.1261e-011
176
root  1.39869 34.7363 1.89576 -67.2426 -81.0013 66.2221
RightUpLeg  -28.2473 -1.74899 -3.55119
RightLeg  62.8689 -7.78177 -16.5886
RightFoot  -26.5474 0.219505 2.99072
RightToes  -1.16417e-010 0 -3.6325e-017
Spine  14.6738 -3.18133 -6.16763
Spine1  -2.24628 -5.0964 8.71782
HEad  -13.6436 11.1778 -12.139
LeftShoulder1  0.753657 -0.713944 -10.6135
LeftArm  -8.0025 7.05421 -6.21875
LeftForeArm  29.945 7.69096 -11.5475
LeftHand  -0.00293199 10.8834 2.03568
RightShoulder  1.68311 2.4251 22.2109
RightArm  -16.8884 -40.6079 49.3291
RightForeArm  84.425 78.1202 45.9088
RightHand  -1.20541 -10.2322 25.7319
LeftUpLeg  -9.39281 -9.33414 20.5421
LeftLeg  33.1749 -0.860374 -0.274586
LeftFoot  -9.99139 0.36573 -25.6752
LeftToes  6.91183e-011 3.39355e-011 2.1261e-011
177
root  1.81303 34.5681 1.9355 -59.8622 -83.6966 59.5675
RightUpLeg  -29.4931 0.756032 -0.289
RightLeg  62.441 -8.75263 -18.1264
RightFoot  -26.7326 0.296651 3.54663
RightToes  -1.16417e-010 0 -3.6325e-017
Spine  15.2858 -2.08307 -2.67219
Spine1  -0.516287 -3.87531 8.93403
HEad  -20.7756 8.85649 -13.4322
LeftShoulder1  1.20853 -2.5147 -13.0676
LeftArm  -7.13498 6.96566 -12.2071
LeftForeArm  22.9217 7.91462 -12.5165
LeftHand  0.159562 7.25544 10.3132
RightShoulder  1.67039 2.3441 22.3649
RightArm  -19.7515 -32.9699 48.4863
RightForeArm  148.034 80.4977 112.971
RightHand  -0.709643 -10.7351 13.6904
LeftUpLeg  -11.1951 -12.5121 23.1318
LeftLeg  34.7945 2.04958 1.87825
LeftFoot  -12.0262 -0.097139 -26.4045
LeftToes  6.91183e-011 3.39355e-011 2.1261e-011
178
root  2.16441 34.6674 1.91045 -52.9837 -85.186 53.8356
RightUpLeg  -30.8913 2.62966 1.34182
RightLeg  61.3321 -9.52409 -18.6746
RightFoot  -25.1086 0.278462 3.70419
RightToes  -1.16417e-010 0 -3.6325e-017
Spine  16.2236 -1.16689 0.185525
Spine1  -0.603244 -2.31756 7.2896
HEad  -27.832 6.62981 -12.4411
LeftShoulder1  1.78587 -4.47962 -15.5613
LeftArm  -9.38537 6.2171 -17.7776
LeftForeArm  15.2621 7.90194 -12.2435
LeftHand  -0.0714845 4.76555 10.9579
RightShoulder  1.4936 2.12849 20.1858
RightArm  -19.0526 -24.2316 46.0695
RightForeArm  179.479 69.9298 154.972
RightHand  0.0277499 -10.5821 -3.47906
LeftUpLeg  -12.2474 -15.4399 24.6229
LeftLeg  33.8574 4.57014 3.63184
LeftFoot  -12.0504 -0.0977855 -29.9173
LeftToes  6.91183e-011 3.39355e-011 2.1261e-011
179
root  2.42246 35.2047 1.83393 -52.8386 -84.7105 54.7834
RightUpLeg  -31.1447 2.81605 0.708714
RightLeg  58.3754 -10.6228 -18.3637
RightFoot  -22.1918 0.112953 2.73702
RightToes  -1.16417e-010 0 -3.6325e-017
Spine  17.1515 -0.99707 2.33612
Spine1  -1.72078 -1.05162 2.94613
HEad  -32.6363 4.54502 -10.2357
LeftShoulder1  2.50527 -6.4433 -18.634
LeftArm  -12.9973 5.19625 -21.6635
LeftForeArm  3.81979 7.70771 -11.2611
LeftHand  -0.0688565 4.37192 5.89554
RightShoulder  1.34621 2.05634 17.6929
RightArm  -21.0171 -15.0351 43.0059
RightForeArm  175.972 58.6459 164.391
RightHand  0.175222 -6.38132 -20.3179
LeftUpLeg  -13.0067 -14.1375 23.9171
LeftLeg  31.7186 8.54633 5.99104
LeftFoot  -6.5788 1.37106 -31.7378
LeftToes  6.91183e-011 3.39355e-011 2.1261e-011
180
root  2.5578 36.2609 1.7176 -55.9749 -82.9788 58.7023
RightUpLeg  -29.2004 2.22253 -1.33846
RightLeg  52.3607 -11.8556 -16.3533
RightFoot  -19.1218 -0.00939057 1.75205
RightToes  -1.16417e-010 0 -3.6325e-017
Spine  17.1804 -1.77815 4.21317
Spine1  -2.34049 -0.574539 -3.60719
HEad  -34.3807 2.97045 -8.17035
LeftShoulder1  3.16601 -7.79696 -21.701
LeftArm  -15.8952 4.32039 -24.9874
LeftForeArm  -6.64011 7.43305 -10.2326
LeftHand  -0.0755099 4.48126 6.19938
RightShoulder  1.2239 1.96825 15.6607
RightArm  -24.2847 -7.72354 40.5467
RightForeArm  169.752 50.953 167.624
RightHand  -0.911975 -1.62935 -28.8818
LeftUpLeg  -13.7753 -7.91608 21.2983
LeftLeg  29.8895 10.5953 6.88637
LeftFoot  3.54781 3.72326 -28.4057
LeftToes  6.91183e-011 3.39355e-011 2.1261e-011
181
root  2.60845 37.6162 1.633 -56.6892 -81.2933 59.5209
RightUpLeg  -25.7265 2.50518 -3.54179
RightLeg  44.9087 -12.7322 -13.5231
RightFoot  -14.4463 -0.0352472 2.93545
RightToes  -1.16417e-010 0 -3.6325e-017
Spine  16.75 -3.04436 5.28311
Spine1  -2.34955 -0.901306 -9.142
HEad  -34.0202 2.64308 -6.66879
LeftShoulder1  3.50169 -8.30659 -23.4187
LeftArm  -17.3704 4.07833 -30.2655
LeftForeArm  -10.4322 7.32431 -9.60783
LeftHand  -0.262013 3.0787 12.3637
RightShoulder  1.06298 1.5812 14.0572
RightArm  -23.1621 -4.38194 39.5121
RightForeArm  168.234 48.489 168.455
RightHand  -1.51029 0.296373 -30.4573
LeftUpLeg  -14.6909 -0.158945 17.8893
LeftLeg  31.7031 7.04198 4.94112
LeftFoot  11.7553 4.78467 -23.3707
LeftToes  6.91183e-011 3.39355e-011 2.1261e-011
182
root  2.65838 38.9556 1.63742 -60.6474 -80.693 62.7614
RightUpLeg  -23.2333 3.84106 -5.04621
RightLeg  39.9489 -13.3985 -12.0032
RightFoot  -4.80452 -0.358249 5.51321
RightToes  -1.16417e-010 0 -3.6325e-017
Spine  17.2823 -3.96562 4.76243
Spine1  -2.8977 -1.59768 -11.2717
HEad  -32.9175 3.93438 -5.92647
LeftShoulder1  3.64734 -8.51158 -24.1495
LeftArm  -17.1989 4.87019 -37.1507
LeftForeArm  -11.0305 5.50536 -10.0198
LeftHand  -0.621805 1.22708 17.5125
RightShoulder  0.937641 1.10445 13.4642
RightArm  -15.7046 -5.30864 39.6568
RightForeArm  168.919 51.3026 167.341
RightHand  -1.42773 0.476539 -27.9312
LeftUpLeg  -14.7425 5.20535 14.4875
LeftLeg  38.6947 1.94369 2.03865
LeftFoot  13.6817 4.71688 -21.3925
LeftToes  6.91183e-011 3.39355e-011 2.1261e-011
183
root  2.70119 40.0174 1.76318 -75.1755 -81.2067 76.3499
RightUpLeg  -24.171 4.58754 -5.60605
RightLeg  39.8879 -13.4215 -12.0012
RightFoot  8.74326 -0.954559 5.93458
RightToes  -1.16417e-010 0 -3.6325e-017
Spine  18.5262 -4.18037 3.33193
Spine1  -4.20005 -2.14557 -10.7659
HEad  -31.7689 6.86654 -6.36112
LeftShoulder1  3.89149 -8.71788 -25.7063
LeftArm  -11.8821 6.7862 -42.4236
LeftForeArm  -15.9704 -4.47668 -10.7175
LeftHand  -1.02395 -1.0154 18.6902
RightShoulder  0.958262 1.0403 14.2628
RightArm  -6.56681 -9.91807 40.8553
RightForeArm  162.689 58.3928 163.161
RightHand  -1.31908 0.930802 -24.0778
LeftUpLeg  -12.4887 8.77491 10.99
LeftLeg  46.8152 -0.338308 0.0893205
LeftFoot  11.2373 4.39849 -22.1644
LeftToes  6.91183e-011 3.39355e-011 2.1261e-011
